<svg id="stopwatch" xmlns="http://www.w3.org/2000/svg" width="70" height="70" viewBox="0 0 70 70">
  <path id="Path_149" data-name="Path 149" d="M68.808,44.059s0-.008,0-.012a34.939,34.939,0,0,0,0-18.1.017.017,0,0,1,0-.008c0-.008-.006-.012-.007-.016a34.783,34.783,0,0,0-3.464-8.349c-.013-.026-.013-.055-.027-.081s-.04-.038-.055-.063a35.19,35.19,0,0,0-5.457-7.11c-.02-.023-.028-.054-.05-.076s-.052-.03-.076-.05a35.19,35.19,0,0,0-7.11-5.456c-.023-.015-.037-.04-.063-.054a.669.669,0,0,0-.082-.027A34.822,34.822,0,0,0,44.071,1.2a.108.108,0,0,1-.012-.006.039.039,0,0,0-.012,0,34.906,34.906,0,0,0-18.1,0,.039.039,0,0,1-.012,0,.108.108,0,0,0-.012.006,34.772,34.772,0,0,0-8.348,3.463c-.027.014-.056.014-.082.029s-.04.04-.063.055a35.19,35.19,0,0,0-7.11,5.456c-.023.02-.054.028-.076.05s-.03.052-.05.076a35.232,35.232,0,0,0-5.456,7.11c-.016.024-.041.038-.055.063s-.014.054-.027.08A34.783,34.783,0,0,0,1.2,25.929s0,.007-.006.012a.054.054,0,0,1,0,.012,34.923,34.923,0,0,0,0,18.1s0,.008,0,.012.006.009.007.015a34.831,34.831,0,0,0,3.463,8.346.706.706,0,0,0,.027.079,1.027,1.027,0,0,0,.076.1A35.187,35.187,0,0,0,10.2,59.671c.02.023.028.054.05.076s.052.03.076.05a35.2,35.2,0,0,0,7.106,5.454c.024.017.04.043.067.058a.967.967,0,0,0,.125.051,34.807,34.807,0,0,0,8.3,3.438.11.11,0,0,1,.012.006l.017,0a34.89,34.89,0,0,0,18.082,0l.018,0a.107.107,0,0,0,.012-.006,34.807,34.807,0,0,0,8.3-3.438.967.967,0,0,0,.125-.051c.027-.015.042-.042.067-.058A35.232,35.232,0,0,0,59.673,59.8c.023-.02.054-.028.076-.05s.03-.052.05-.076A35.263,35.263,0,0,0,65.235,52.6a1.2,1.2,0,0,0,.076-.1c.015-.026.014-.054.027-.081A34.792,34.792,0,0,0,68.8,44.074.089.089,0,0,1,68.808,44.059ZM64,43.977l2.234.6a32.444,32.444,0,0,1-2.385,5.731l-1.994-1.152a1.167,1.167,0,0,0-1.167,2.021l1.988,1.148a32.85,32.85,0,0,1-3.781,4.919l-1.619-1.619a1.166,1.166,0,0,0-1.65,1.65l1.619,1.619a32.85,32.85,0,0,1-4.919,3.781l-1.148-1.989a1.167,1.167,0,1,0-2.021,1.167l1.152,1.994a32.48,32.48,0,0,1-5.731,2.385L43.979,64a1.167,1.167,0,1,0-2.254.6l.6,2.227a32.592,32.592,0,0,1-6.154.807V63a1.167,1.167,0,0,0-2.333,0v4.638a32.591,32.591,0,0,1-6.154-.807l.6-2.227a1.167,1.167,0,1,0-2.254-.6l-.6,2.234a32.481,32.481,0,0,1-5.731-2.385l1.152-1.994a1.167,1.167,0,1,0-2.021-1.167l-1.148,1.989A32.85,32.85,0,0,1,12.759,58.9l1.619-1.619a1.166,1.166,0,0,0-1.65-1.65l-1.622,1.617a32.85,32.85,0,0,1-3.781-4.919l1.988-1.148a1.166,1.166,0,1,0-1.166-2.021L6.154,50.308A32.48,32.48,0,0,1,3.77,44.577L6,43.979a1.167,1.167,0,1,0-.6-2.254l-2.227.6a32.5,32.5,0,0,1-.81-6.154H7a1.167,1.167,0,1,0,0-2.333H2.362a32.592,32.592,0,0,1,.807-6.154l2.227.6a1.184,1.184,0,0,0,.3.04A1.167,1.167,0,0,0,6,26.021l-2.233-.6a32.444,32.444,0,0,1,2.385-5.731l1.994,1.152a1.167,1.167,0,0,0,1.167-2.022L7.325,17.675a32.85,32.85,0,0,1,3.781-4.919l1.619,1.619a1.166,1.166,0,1,0,1.65-1.65l-1.619-1.619a32.85,32.85,0,0,1,4.919-3.781l1.148,1.988a1.167,1.167,0,1,0,2.021-1.167L19.692,6.153a32.48,32.48,0,0,1,5.731-2.385L26.021,6a1.165,1.165,0,0,0,1.126.865,1.184,1.184,0,0,0,.3-.04A1.167,1.167,0,0,0,28.275,5.4l-.6-2.227a32.617,32.617,0,0,1,6.155-.808V7a1.167,1.167,0,1,0,2.333,0V2.362a32.592,32.592,0,0,1,6.154.807l-.6,2.227a1.168,1.168,0,0,0,.825,1.429,1.184,1.184,0,0,0,.3.04A1.166,1.166,0,0,0,43.977,6l.6-2.234a32.444,32.444,0,0,1,5.731,2.385L49.155,8.146a1.167,1.167,0,1,0,2.021,1.167l1.148-1.988a32.85,32.85,0,0,1,4.919,3.781l-1.619,1.619a1.166,1.166,0,1,0,1.65,1.65l1.619-1.619a32.85,32.85,0,0,1,3.781,4.919l-1.988,1.148a1.167,1.167,0,1,0,1.167,2.021l1.994-1.152a32.48,32.48,0,0,1,2.385,5.731L64,26.02a1.167,1.167,0,0,0,.3,2.294,1.184,1.184,0,0,0,.3-.04l2.227-.6a32.5,32.5,0,0,1,.807,6.154H63a1.167,1.167,0,0,0,0,2.333h4.638a32.592,32.592,0,0,1-.807,6.154l-2.227-.6A1.167,1.167,0,0,0,64,43.977Z" transform="translate(0)" fill="#d81159"/>
  <path id="Path_150" data-name="Path 150" d="M43.5,31.833H35.168A4.659,4.659,0,0,0,31.833,28.5V13.167a1.167,1.167,0,1,0-2.333,0V28.5a4.657,4.657,0,1,0,5.668,5.668H43.5a1.167,1.167,0,1,0,0-2.333Zm-12.833,3.5A2.333,2.333,0,1,1,33,33,2.336,2.336,0,0,1,30.667,35.333Z" transform="translate(4.333 2)" fill="#d81159"/>
  <path id="Path_151" data-name="Path 151" d="M31.333,35a9.333,9.333,0,1,0,9.333,9.333A9.344,9.344,0,0,0,31.333,35Zm0,16.333a7,7,0,1,1,7-7A7.007,7.007,0,0,1,31.333,51.333Z" transform="translate(3.667 5.833)" fill="#d81159"/>
  <path id="Path_152" data-name="Path 152" d="M27.992,39.342a1.166,1.166,0,0,0-1.65,1.65l3.5,3.5a1.166,1.166,0,0,0,1.65-1.65Z" transform="translate(4.333 6.5)" fill="#d81159"/>
</svg>
