<svg xmlns="http://www.w3.org/2000/svg" width="69.771" height="70" viewBox="0 0 69.771 70">
  <g id="feedback" transform="translate(-0.784)">
    <g id="Group_43" data-name="Group 43" transform="translate(0.784)">
      <g id="Group_42" data-name="Group 42" transform="translate(0)">
        <path id="Path_111" data-name="Path 111" d="M66.009,6.988H42.714V4.659A4.673,4.673,0,0,0,38.055,0H5.443A4.673,4.673,0,0,0,.784,4.659V30.283c0,12.812,12.23,12.812,16.306,12.812a1.165,1.165,0,1,0,0-2.329,4.673,4.673,0,0,1-4.659-4.659v-.466a4.9,4.9,0,0,1,4.892-4.193H33.4v2.329H22.914a1.1,1.1,0,0,0-1.165,1.165,10.457,10.457,0,0,0,2.8,7.1,11.259,11.259,0,0,0-.466,3.378A11.771,11.771,0,0,0,31.067,56.14c0,.7-.349,2.1-3.494,2.1a5.767,5.767,0,0,0-5.824,5.824v5.824h2.329V64.06a3.46,3.46,0,0,1,3.261-3.494l5.707,2.8a8.087,8.087,0,0,0,1.514.582v5.94H36.89v-5.94a5.766,5.766,0,0,0,1.514-.466l5.707-2.8a3.46,3.46,0,0,1,3.261,3.494V70H49.7V64.176a5.767,5.767,0,0,0-5.824-5.824c-3.145,0-3.494-1.4-3.494-2.1a11.593,11.593,0,0,0,6.988-11.065v-.815a9.23,9.23,0,0,0-1.165-4.659h7.8A4.9,4.9,0,0,1,58.9,43.91a4.7,4.7,0,0,1-4.193,5.125h-.466a1.165,1.165,0,1,0,0,2.329c4.077,0,16.306,0,16.306-12.812V11.647A4.5,4.5,0,0,0,66.009,6.988ZM17.323,29.118a7.282,7.282,0,0,0-7.221,6.29A7.324,7.324,0,0,0,11.5,40.3C5.792,39.135,3.113,35.99,3.113,30.283V4.659A2.336,2.336,0,0,1,5.443,2.329H38.055a2.336,2.336,0,0,1,2.329,2.329v22.13a2.336,2.336,0,0,1-2.329,2.329Zm6.872,6.988h12.7a8.149,8.149,0,0,1,8.037,6.988h-12.7A8.149,8.149,0,0,1,24.195,36.106ZM38.871,54.16a1.119,1.119,0,0,0-.815,1.048v.7a4.1,4.1,0,0,0,2.329,3.96l-3.028,1.514a4.256,4.256,0,0,1-3.378,0l-2.912-1.514a4.1,4.1,0,0,0,2.329-3.96v-.582a1.119,1.119,0,0,0-.815-1.048,9.431,9.431,0,0,1-6.173-8.852,7.163,7.163,0,0,1,.116-1.631,10.547,10.547,0,0,0,5.707,1.631H45.044A9.17,9.17,0,0,1,38.871,54.16ZM68.338,38.436c0,5.707-2.679,8.852-8.386,10.017a7.324,7.324,0,0,0,1.4-4.892,7.2,7.2,0,0,0-7.221-6.29H44.694a10.413,10.413,0,0,0-7.8-3.494H35.726V31.448h2.329a4.673,4.673,0,0,0,4.659-4.659V9.318H66.009a2.336,2.336,0,0,1,2.329,2.329Z" transform="translate(-0.784)" fill="#ffbc42"/>
      </g>
    </g>
    <g id="Group_45" data-name="Group 45" transform="translate(10.102 4.659)">
      <g id="Group_44" data-name="Group 44">
        <path id="Path_112" data-name="Path 112" d="M82.255,40.153H81.09a1.1,1.1,0,0,1-1.165-1.165V35.494a3.494,3.494,0,1,0-6.988,0v3.494a1.1,1.1,0,0,1-1.165,1.165,1.1,1.1,0,0,0-1.165-1.165H65.949a1.1,1.1,0,0,0-1.165,1.165V52.965a1.1,1.1,0,0,0,1.165,1.165h4.659a1.1,1.1,0,0,0,1.165-1.165H82.255a3.432,3.432,0,0,0,3.494-3.494V43.647A3.432,3.432,0,0,0,82.255,40.153ZM69.443,51.8H67.113V41.318h2.329ZM83.42,49.471a1.1,1.1,0,0,1-1.165,1.165H71.772V42.483a3.432,3.432,0,0,0,3.494-3.494V35.494a1.165,1.165,0,1,1,2.329,0v3.494a3.432,3.432,0,0,0,3.494,3.494h1.165a1.1,1.1,0,0,1,1.165,1.165Z" transform="translate(-64.784 -32)" fill="#ffbc42"/>
      </g>
    </g>
    <g id="Group_47" data-name="Group 47" transform="translate(45.044 11.647)">
      <g id="Group_46" data-name="Group 46">
        <path id="Path_113" data-name="Path 113" d="M324.584,80h-4.659a1.1,1.1,0,0,0-1.165,1.165H308.278a3.432,3.432,0,0,0-3.494,3.494v5.824a3.432,3.432,0,0,0,3.494,3.494h1.165a1.1,1.1,0,0,1,1.165,1.165v3.494a3.494,3.494,0,1,0,6.988,0V95.141a1.1,1.1,0,0,1,1.165-1.165,1.1,1.1,0,0,0,1.165,1.165h4.659a1.1,1.1,0,0,0,1.165-1.165V81.165A1.1,1.1,0,0,0,324.584,80Zm-5.824,11.647a3.432,3.432,0,0,0-3.494,3.494v3.494a1.165,1.165,0,1,1-2.329,0V95.141a3.432,3.432,0,0,0-3.494-3.494h-1.165a1.1,1.1,0,0,1-1.165-1.165V84.659a1.1,1.1,0,0,1,1.165-1.165h10.483Zm4.659,1.165H321.09V82.329h2.329Z" transform="translate(-304.784 -80)" fill="#ffbc42"/>
      </g>
    </g>
    <g id="Group_49" data-name="Group 49" transform="translate(43.879 30.283)">
      <g id="Group_48" data-name="Group 48">
        <rect id="Rectangle_168" data-name="Rectangle 168" width="4.659" height="2.329" fill="#ffbc42"/>
      </g>
    </g>
    <g id="Group_51" data-name="Group 51" transform="translate(28.737 4.659)">
      <g id="Group_50" data-name="Group 50">
        <path id="Path_114" data-name="Path 114" d="M196.278,33.165V32h-2.329v1.165h-1.165v2.329h1.165v1.165h2.329V35.494h1.165V33.165Z" transform="translate(-192.784 -32)" fill="#ffbc42"/>
      </g>
    </g>
  </g>
</svg>
