<svg id="left-arrow" xmlns="http://www.w3.org/2000/svg" width="11.925" height="9.905" viewBox="0 0 11.925 9.905">
  <g id="Group_105" data-name="Group 105" transform="translate(0 0)">
    <path id="Path_163" data-name="Path 163" d="M11.254,45.691l.019,0H3.293L5.8,43.181a.659.659,0,0,0,0-.926l-.39-.391a.653.653,0,0,0-.922,0l-4.3,4.3a.657.657,0,0,0,0,.925l4.3,4.3a.654.654,0,0,0,.922,0L5.8,51a.646.646,0,0,0,.19-.461.627.627,0,0,0-.19-.452L3.265,47.557h8a.676.676,0,0,0,.661-.669v-.552A.663.663,0,0,0,11.254,45.691Z" transform="translate(0 -41.674)" fill="#4f86c6"/>
  </g>
</svg>
