<svg xmlns="http://www.w3.org/2000/svg" width="11.076" height="9.2" viewBox="0 0 11.076 9.2">
  <g id="left-arrow" transform="translate(0 -41.674)">
    <g id="Group_105" data-name="Group 105" transform="translate(0 41.674)">
      <path id="Path_163" data-name="Path 163" d="M10.454,45.405l.017,0H3.059l2.33-2.335a.612.612,0,0,0,0-.86l-.363-.363a.606.606,0,0,0-.856,0L.176,45.844a.611.611,0,0,0,0,.859L4.171,50.7a.607.607,0,0,0,.856,0l.363-.363a.6.6,0,0,0,.177-.428.582.582,0,0,0-.177-.42L3.033,47.139h7.429a.628.628,0,0,0,.614-.621V46A.616.616,0,0,0,10.454,45.405Z" transform="translate(0 -41.674)" fill="#8283a7"/>
    </g>
  </g>
</svg>
