<svg xmlns="http://www.w3.org/2000/svg" width="34.024" height="27" viewBox="0 0 34.024 27">
  <g id="add-contact" transform="translate(0 -48)">
    <path id="Path_4" data-name="Path 4" d="M59.573,57.146A4.573,4.573,0,1,0,55,52.573,4.578,4.578,0,0,0,59.573,57.146Zm0-8.049A3.476,3.476,0,1,1,56.1,52.573,3.48,3.48,0,0,1,59.573,49.1Z" transform="translate(-50.976)" fill="#aaa"/>
    <path id="Path_5" data-name="Path 5" d="M224.573,57.146A4.573,4.573,0,1,0,220,52.573,4.578,4.578,0,0,0,224.573,57.146Zm0-8.049a3.476,3.476,0,1,1-3.476,3.476A3.48,3.48,0,0,1,224.573,49.1Z" transform="translate(-203.902)" fill="#aaa"/>
    <path id="Path_6" data-name="Path 6" d="M224.485,206.016a.549.549,0,0,0,.869-.671,8.6,8.6,0,0,0-11.614-1.876.549.549,0,0,0,.614.91,7.5,7.5,0,0,1,10.131,1.638Z" transform="translate(-197.876 -142.732)" fill="#aaa"/>
    <path id="Path_7" data-name="Path 7" d="M8.6,202A8.607,8.607,0,0,0,0,210.6a.549.549,0,1,0,1.1,0,7.5,7.5,0,0,1,15,0,.549.549,0,1,0,1.1,0A8.607,8.607,0,0,0,8.6,202Z" transform="translate(0 -142.732)" fill="#aaa"/>
    <path id="Path_8" data-name="Path 8" d="M325.3,272a5.3,5.3,0,1,0,5.3,5.3A5.311,5.311,0,0,0,325.3,272Zm0,9.512a4.207,4.207,0,1,1,4.207-4.207A4.212,4.212,0,0,1,325.3,281.512Z" transform="translate(-296.585 -207.61)" fill="#aaa"/>
    <path id="Path_9" data-name="Path 9" d="M364.207,313.829h-1.28v-1.28a.549.549,0,1,0-1.1,0v1.28h-1.281a.549.549,0,0,0,0,1.1h1.281v1.28a.549.549,0,1,0,1.1,0v-1.28h1.28a.549.549,0,1,0,0-1.1Z" transform="translate(-333.659 -244.683)" fill="#aaa"/>
  </g>
</svg>
