<svg xmlns="http://www.w3.org/2000/svg" width="70" height="70" viewBox="0 0 70 70">
  <g id="bmi" transform="translate(-1 -1)">
    <path id="Path_122" data-name="Path 122" d="M57.271,17.6a9.026,9.026,0,1,0-13.616-9.96L37.016,1H23V3.258H36.081l7.266,7.266A9.026,9.026,0,0,0,47.439,17.6,15.827,15.827,0,0,0,36.548,32.613v7.9a5.652,5.652,0,0,0,5.645,5.645h1.129V65.919a5.06,5.06,0,0,0,9.032,3.155,5.06,5.06,0,0,0,9.032-3.155V46.161h1.129a5.652,5.652,0,0,0,5.645-5.645v-7.9A15.827,15.827,0,0,0,57.271,17.6Zm-11.69-7.567a6.774,6.774,0,1,1,6.774,6.774A6.781,6.781,0,0,1,45.581,10.032ZM65.9,40.516A3.391,3.391,0,0,1,62.516,43.9H61.387V26.968H59.129V65.919a2.823,2.823,0,0,1-5.645,0V38.258H51.226V65.919a2.823,2.823,0,0,1-5.645,0V26.968H43.323V43.9H42.194a3.391,3.391,0,0,1-3.387-3.387v-7.9a13.548,13.548,0,1,1,27.1,0Z" transform="translate(2.839)" fill="#4f86c6"/>
    <path id="Path_123" data-name="Path 123" d="M19.065,56.468V45.645a4.521,4.521,0,0,0,4.516-4.516V29.839a11.307,11.307,0,0,0-6.87-10.387,7.9,7.9,0,1,0-8.84,0A11.307,11.307,0,0,0,1,29.839v11.29a4.521,4.521,0,0,0,4.516,4.516V66.532a3.946,3.946,0,0,0,6.774,2.757,3.946,3.946,0,0,0,6.774-2.757V59.661l7.242-7.242H39.387V50.161H25.371ZM6.645,12.9a5.645,5.645,0,1,1,5.645,5.645A5.652,5.652,0,0,1,6.645,12.9ZM16.806,66.532a1.694,1.694,0,0,1-3.387,0V37.742H11.161v28.79a1.694,1.694,0,0,1-3.387,0V28.71H5.516V43.387a2.26,2.26,0,0,1-2.258-2.258V29.839a9.032,9.032,0,1,1,18.065,0v11.29a2.26,2.26,0,0,1-2.258,2.258V28.71H16.806Z" transform="translate(0 0.516)" fill="#4f86c6"/>
    <path id="Path_124" data-name="Path 124" d="M33,49h2.258v2.258H33Z" transform="translate(4.129 6.194)" fill="#4f86c6"/>
    <path id="Path_125" data-name="Path 125" d="M23,49h9.032v2.258H23Z" transform="translate(2.839 6.194)" fill="#4f86c6"/>
    <path id="Path_126" data-name="Path 126" d="M23,5h9.032V7.258H23Z" transform="translate(2.839 0.516)" fill="#4f86c6"/>
    <path id="Path_127" data-name="Path 127" d="M33,5h2.258V7.258H33Z" transform="translate(4.129 0.516)" fill="#4f86c6"/>
  </g>
</svg>
