<svg xmlns="http://www.w3.org/2000/svg" width="63.132" height="70" viewBox="0 0 63.132 70">
  <g id="insight" transform="translate(-25.117)">
    <g id="Group_53" data-name="Group 53" transform="translate(25.117)">
      <g id="Group_52" data-name="Group 52">
        <path id="Path_128" data-name="Path 128" d="M184.265,72.028a1.083,1.083,0,0,0,.769-.318l2.89-2.89a1.087,1.087,0,0,0-1.537-1.537l-2.89,2.89a1.087,1.087,0,0,0,.769,1.856Z" transform="translate(-161.568 -57.809)" fill="#e85c43"/>
        <path id="Path_129" data-name="Path 129" d="M149.286,52.6a1.087,1.087,0,0,0,1.087-1.087V44.808a1.087,1.087,0,0,0-2.174,0v6.709A1.087,1.087,0,0,0,149.286,52.6Z" transform="translate(-131.371 -37.744)" fill="#e85c43"/>
        <path id="Path_130" data-name="Path 130" d="M179.573,125.256h6.709a1.087,1.087,0,0,0,0-2.174h-6.709a1.087,1.087,0,0,0,0,2.174Z" transform="translate(-157.518 -106.254)" fill="#e85c43"/>
        <path id="Path_131" data-name="Path 131" d="M185.034,158.38a1.087,1.087,0,0,0-1.537,1.537l2.89,2.89a1.087,1.087,0,0,0,1.537-1.537Z" transform="translate(-161.568 -136.452)" fill="#e85c43"/>
        <path id="Path_132" data-name="Path 132" d="M150.374,161.166v-6.709a1.087,1.087,0,0,0-2.174,0v6.709a1.087,1.087,0,0,0,2.174,0Z" transform="translate(-131.372 -132.401)" fill="#e85c43"/>
        <path id="Path_133" data-name="Path 133" d="M79.675,50.741V35.766a9.661,9.661,0,1,0-2.174,0V50.741a9.677,9.677,0,0,0-8.511,8.511H52.63a9.677,9.677,0,0,0-8.511-8.511V35.8a17.915,17.915,0,1,0-2.174,0V50.741A9.66,9.66,0,1,0,52.63,61.426H68.99A9.66,9.66,0,1,0,79.675,50.741ZM27.291,17.915A15.741,15.741,0,1,1,43.032,33.655,15.758,15.758,0,0,1,27.291,17.915ZM43.032,67.826a7.487,7.487,0,1,1,7.487-7.487A7.5,7.5,0,0,1,43.032,67.826ZM71.1,26.168a7.487,7.487,0,1,1,7.487,7.487A7.5,7.5,0,0,1,71.1,26.168Zm7.487,41.658a7.487,7.487,0,1,1,7.487-7.487A7.5,7.5,0,0,1,78.588,67.826Z" transform="translate(-25.117)" fill="#e85c43"/>
        <path id="Path_134" data-name="Path 134" d="M76.633,123.081H69.924a1.087,1.087,0,0,0,0,2.174h6.709a1.087,1.087,0,1,0,0-2.174Z" transform="translate(-62.86 -106.254)" fill="#e85c43"/>
        <path id="Path_135" data-name="Path 135" d="M95.289,158.381l-2.89,2.89a1.087,1.087,0,1,0,1.537,1.537l2.89-2.89a1.087,1.087,0,1,0-1.537-1.537Z" transform="translate(-82.926 -136.452)" fill="#e85c43"/>
        <path id="Path_136" data-name="Path 136" d="M95.289,71.71a1.087,1.087,0,0,0,1.537-1.537l-2.89-2.89A1.087,1.087,0,1,0,92.4,68.82Z" transform="translate(-82.926 -57.809)" fill="#e85c43"/>
      </g>
    </g>
  </g>
</svg>
