<svg xmlns="http://www.w3.org/2000/svg" width="68.719" height="82.735" viewBox="0 0 68.719 82.735">
  <g id="left-arrow" transform="translate(110.393) rotate(90)">
    <g id="Group_105" data-name="Group 105" transform="translate(0 41.674)">
      <path id="Path_163" data-name="Path 163" d="M78.084,69.546l.129.028H22.851l17.4-17.442a4.571,4.571,0,0,0,0-6.426L37.547,43a4.53,4.53,0,0,0-6.394,0L1.319,72.824a4.561,4.561,0,0,0,0,6.416l29.834,29.834a4.534,4.534,0,0,0,6.394,0l2.708-2.709a4.481,4.481,0,0,0,1.32-3.2,4.347,4.347,0,0,0-1.32-3.137l-17.6-17.54H78.146a4.689,4.689,0,0,0,4.589-4.641V74.019A4.6,4.6,0,0,0,78.084,69.546Z" transform="translate(0 -41.674)" fill="#fff"/>
    </g>
  </g>
</svg>
