<svg xmlns="http://www.w3.org/2000/svg" width="27.108" height="27.108" viewBox="0 0 27.108 27.108">
  <path id="wire" d="M34.543,8a.564.564,0,0,0-.565.565V21.707a9.089,9.089,0,0,0-4.195-3.865,9.083,9.083,0,0,0-4.514-4.516,9,9,0,0,0-2.805-3.515.565.565,0,1,0-.679.9,7.93,7.93,0,0,1,1.921,2.074,9,9,0,0,0-10.922,10.9A7.9,7.9,0,0,1,19.146,9.415a.565.565,0,0,0,.3-1.089A9.042,9.042,0,0,0,8,17.036V34.543a.565.565,0,1,0,1.129,0V21.4a9.089,9.089,0,0,0,4.195,3.865,9.085,9.085,0,0,0,4.514,4.516A9,9,0,0,0,20.654,33.3a.565.565,0,0,0,.678-.9A7.947,7.947,0,0,1,19.4,30.32a9,9,0,0,0,10.923-10.9A7.9,7.9,0,0,1,23.97,33.7a.565.565,0,0,0-.3,1.089,9.044,9.044,0,0,0,11.437-8.713V8.565A.564.564,0,0,0,34.543,8Zm-6.334,9.3a9.01,9.01,0,0,0-2.137-.266,9.142,9.142,0,0,0-.251-2.128A7.958,7.958,0,0,1,28.209,17.3ZM13.647,21.554A7.889,7.889,0,0,1,24.412,14.19a7.913,7.913,0,0,1,.531,2.846c0,.027,0,.053,0,.079a9.046,9.046,0,0,0-7.824,7.824c-.026,0-.052,0-.078,0a7.859,7.859,0,0,1-2.849-.539,7.859,7.859,0,0,1-.539-2.849Zm11.188-3.282a7.912,7.912,0,0,1-6.564,6.564A7.915,7.915,0,0,1,24.836,18.272ZM14.9,25.806a9.01,9.01,0,0,0,2.137.266,9.172,9.172,0,0,0,.25,2.128A7.969,7.969,0,0,1,14.9,25.806ZM29.46,21.554A7.889,7.889,0,0,1,18.7,28.918a7.925,7.925,0,0,1-.53-2.846c0-.027,0-.053,0-.079a9.046,9.046,0,0,0,7.824-7.824c.026,0,.052,0,.079,0a7.859,7.859,0,0,1,2.849.539A7.859,7.859,0,0,1,29.46,21.554Z" transform="translate(-8 -8)" fill="#aaa"/>
</svg>
