<svg xmlns="http://www.w3.org/2000/svg" width="70" height="70" viewBox="0 0 70 70">
  <g id="crm" transform="translate(-1 -1)">
    <path id="Path_115" data-name="Path 115" d="M64.933,57.191a6.76,6.76,0,0,0-2.965-12.057V43.9a5.652,5.652,0,0,0-5.645-5.645H37.129V34.144a3.5,3.5,0,0,0,5.633-2.672,3.514,3.514,0,0,0,3.387-3.387A3.514,3.514,0,0,0,49.536,24.7a3.516,3.516,0,0,0,2.368-6l-.235-.235A10.7,10.7,0,0,0,36,3.94,10.7,10.7,0,0,0,20.9,19.09,3.5,3.5,0,0,0,23.593,24.7a3.514,3.514,0,0,0,3.387,3.387,3.514,3.514,0,0,0,3.387,3.387,3.468,3.468,0,0,0,4.5,3.241v3.545H15.677A5.652,5.652,0,0,0,10.032,43.9v1.231A6.76,6.76,0,0,0,7.067,57.191,10.172,10.172,0,0,0,1,66.484V71H21.323V66.484a10.172,10.172,0,0,0-6.067-9.293A6.76,6.76,0,0,0,12.29,45.134V43.9a3.391,3.391,0,0,1,3.387-3.387H34.871v4.618a6.76,6.76,0,0,0-2.965,12.057,10.172,10.172,0,0,0-6.067,9.293V71H46.161V66.484a10.172,10.172,0,0,0-6.067-9.293,6.76,6.76,0,0,0-2.965-12.057V40.516H56.323A3.391,3.391,0,0,1,59.71,43.9v1.231a6.76,6.76,0,0,0-2.965,12.057,10.172,10.172,0,0,0-6.067,9.293V71H71V66.484A10.172,10.172,0,0,0,64.933,57.191ZM43.356,3.258a8.442,8.442,0,0,1,6.7,13.588l-5.191-5.191a9.118,9.118,0,0,0,.966-.824l-1.6-1.6a6.541,6.541,0,0,1-4.655,1.927h-1.79l-1.927,1.927a1.124,1.124,0,0,1-.8.331H30.822a.468.468,0,0,1-.331-.8L37.38,5.733a8.4,8.4,0,0,1,5.976-2.475Zm-14.711,0a8.386,8.386,0,0,1,5.748,2.268l-5.5,5.5a2.726,2.726,0,0,0,1.928,4.653h4.242a3.367,3.367,0,0,0,2.4-.992l1.266-1.266h.855a8.827,8.827,0,0,0,3.239-.616l7.488,7.488a1.266,1.266,0,0,1-1.791,1.791L45.83,19.4l-1.6,1.6,2.686,2.686a1.266,1.266,0,0,1-1.791,1.791l-2.686-2.686-1.6,1.6,2.686,2.686a1.266,1.266,0,0,1-1.791,1.791L39.056,26.17l-1.6,1.6,2.686,2.686a1.266,1.266,0,0,1-1.791,1.791l-.377-.377a3.513,3.513,0,0,0-3.12-4.885,3.514,3.514,0,0,0-3.387-3.387,3.514,3.514,0,0,0-3.387-3.387,3.521,3.521,0,0,0-3.511-3.4,3.483,3.483,0,0,0-2.075.69A8.442,8.442,0,0,1,28.644,3.258ZM22.452,21.186a1.261,1.261,0,0,1,.37-.9l.856-.856a1.266,1.266,0,0,1,1.791,1.791l-.856.856a1.266,1.266,0,0,1-2.161-.9Zm3.387,3.387a1.261,1.261,0,0,1,.37-.9l.856-.856a1.266,1.266,0,0,1,1.791,1.791L28,25.468a1.266,1.266,0,0,1-2.161-.9Zm3.387,3.387a1.261,1.261,0,0,1,.37-.9l.856-.856A1.266,1.266,0,0,1,32.243,28l-.856.856a1.266,1.266,0,0,1-2.161-.9Zm4.653,4.653a1.266,1.266,0,0,1-.9-2.161l.856-.856a1.266,1.266,0,0,1,1.791,1.791l-.856.856A1.261,1.261,0,0,1,33.879,32.613ZM19.065,66.484v2.258H16.806V64.226H14.548v4.516H7.774V64.226H5.516v4.516H3.258V66.484a7.9,7.9,0,1,1,15.806,0ZM15.677,51.806a4.516,4.516,0,1,1-4.516-4.516A4.521,4.521,0,0,1,15.677,51.806ZM43.9,66.484v2.258H41.645V64.226H39.387v4.516H32.613V64.226H30.355v4.516H28.1V66.484a7.9,7.9,0,1,1,15.806,0ZM40.516,51.806A4.516,4.516,0,1,1,36,47.29,4.521,4.521,0,0,1,40.516,51.806Zm15.806,0a4.516,4.516,0,1,1,4.516,4.516A4.521,4.521,0,0,1,56.323,51.806ZM68.742,68.742H66.484V64.226H64.226v4.516H57.452V64.226H55.194v4.516H52.935V66.484a7.9,7.9,0,1,1,15.806,0Z" transform="translate(0 0)" fill="#41d3bd"/>
    <path id="Path_116" data-name="Path 116" d="M38,38h2v2H38Z" transform="translate(4.933 4.933)" fill="#41d3bd"/>
    <path id="Path_117" data-name="Path 117" d="M42,38h2v2H42Z" transform="translate(5.467 4.933)" fill="#41d3bd"/>
    <path id="Path_118" data-name="Path 118" d="M46,38h2v2H46Z" transform="translate(6 4.933)" fill="#41d3bd"/>
    <path id="Path_119" data-name="Path 119" d="M16,38h2v2H16Z" transform="translate(2 4.933)" fill="#41d3bd"/>
    <path id="Path_120" data-name="Path 120" d="M20,38h2v2H20Z" transform="translate(2.533 4.933)" fill="#41d3bd"/>
    <path id="Path_121" data-name="Path 121" d="M24,38h2v2H24Z" transform="translate(3.067 4.933)" fill="#41d3bd"/>
  </g>
</svg>
