<svg xmlns="http://www.w3.org/2000/svg" width="67.863" height="70" viewBox="0 0 67.863 70">
  <g id="idea" transform="translate(-7.815)">
    <g id="Group_55" data-name="Group 55" transform="translate(62.147 26.334)">
      <g id="Group_54" data-name="Group 54">
        <path id="Path_137" data-name="Path 137" d="M407.548,193.015a1.367,1.367,0,0,0-1.934,1.934l.064.062a1.367,1.367,0,0,0,1.869-2Z" transform="translate(-405.214 -192.615)" fill="#ff60a4"/>
      </g>
    </g>
    <g id="Group_57" data-name="Group 57" transform="translate(44.449 20.949)">
      <g id="Group_56" data-name="Group 56">
        <path id="Path_138" data-name="Path 138" d="M293.019,156.769a21.4,21.4,0,0,0-2.388-1.409,18.336,18.336,0,0,0-13.9-1.325,1.367,1.367,0,1,0,.811,2.611A15.652,15.652,0,0,1,289.4,157.8a19.036,19.036,0,0,1,2.082,1.229,1.367,1.367,0,1,0,1.536-2.262Z" transform="translate(-275.764 -153.23)" fill="#ff60a4"/>
      </g>
    </g>
    <g id="Group_59" data-name="Group 59" transform="translate(16.545 8.676)">
      <g id="Group_58" data-name="Group 58" transform="translate(0)">
        <path id="Path_139" data-name="Path 139" d="M129.264,96.964a17.591,17.591,0,0,1-1.505-3.767c1.6-3.941,1.016-8.3-1.647-12.291-4.1-6.135-12.488-10.588-19.957-10.588a24.465,24.465,0,0,0-11.271,2.739A11.7,11.7,0,1,0,77.265,85.149a2.285,2.285,0,0,1,1.32,2.031v8a2.771,2.771,0,0,0,2.768,2.769h.465a24.349,24.349,0,0,0,8.245,15.417,5.392,5.392,0,0,1-.374,2.657c-.423,1.472-1.073,3.106-1.645,4.549-.383.965-.714,1.8-.915,2.429a1.367,1.367,0,0,0,1.3,1.781h19.516a2.219,2.219,0,0,0,2.076-1.655,13.365,13.365,0,0,0,.566-2.07c.162-.739.543-2.469.922-2.678a.277.277,0,0,1,.076,0,1.345,1.345,0,0,0,.212.017c2.044,0,3.714.093,5.187.174,4.322.24,6.93.385,9.218-2.911,1.164-1.676,1.032-4.121.892-6.71a24.419,24.419,0,0,1-.014-3.856,11.93,11.93,0,0,1,1.211-.9c1.289-.885,2.506-1.721,2.506-2.992C130.8,100.237,130.217,98.963,129.264,96.964ZM78.694,82.817a8.97,8.97,0,1,1,9.357,0,4.975,4.975,0,0,0-2.4,2.929H81.091A4.978,4.978,0,0,0,78.694,82.817Zm6.731,5.664v2H81.32v-2Zm-4.072,6.733a.039.039,0,0,1-.034-.034V93.215h4.105V95.18a.039.039,0,0,1-.034.034Zm45.394,6.727c-1.177.808-2.193,1.506-2.343,2.562a24.339,24.339,0,0,0-.036,4.6c.1,1.92.221,4.1-.408,5-1.36,1.96-2.537,1.979-6.821,1.741-1.413-.078-3.167-.176-5.247-.179a2.914,2.914,0,0,0-3.051,1.809,12.7,12.7,0,0,0-.921,3,14.527,14.527,0,0,1-.406,1.578H90.4l.185-.466c1.97-4.959,3.217-8.6,1.318-10.238a21.636,21.636,0,0,1-7.327-13.395h.814A2.772,2.772,0,0,0,88.16,95.18v-8a2.286,2.286,0,0,1,1.32-2.034,11.624,11.624,0,0,0,5.559-9.05,21.722,21.722,0,0,1,11.116-3.046c6.514,0,14.116,4.029,17.683,9.372a10.261,10.261,0,0,1,1.358,9.818c-.536,1.292.259,3.083,1.6,5.9a24.672,24.672,0,0,1,1.23,2.847A12.919,12.919,0,0,1,126.748,101.941Z" transform="translate(-71.668 -63.458)" fill="#ff60a4"/>
      </g>
    </g>
    <g id="Group_61" data-name="Group 61" transform="translate(30.059 14.83)">
      <g id="Group_60" data-name="Group 60">
        <path id="Path_140" data-name="Path 140" d="M175.411,112.088a5.474,5.474,0,0,0-2.9-3.466,1.367,1.367,0,0,0-1.253,2.43,2.741,2.741,0,0,1,1.516,1.748,4.145,4.145,0,0,1-.379,2.825,1.367,1.367,0,1,0,2.306,1.47A6.853,6.853,0,0,0,175.411,112.088Z" transform="translate(-170.514 -108.47)" fill="#ff60a4"/>
      </g>
    </g>
    <g id="Group_63" data-name="Group 63" transform="translate(26.882)">
      <g id="Group_62" data-name="Group 62">
        <path id="Path_141" data-name="Path 141" d="M148.646,0a1.367,1.367,0,0,0-1.367,1.367v3.9a1.367,1.367,0,1,0,2.734,0v-3.9A1.367,1.367,0,0,0,148.646,0Z" transform="translate(-147.279)" fill="#ff60a4"/>
      </g>
    </g>
    <g id="Group_65" data-name="Group 65" transform="translate(7.815 19.067)">
      <g id="Group_64" data-name="Group 64" transform="translate(0)">
        <path id="Path_142" data-name="Path 142" d="M13.08,139.465h-3.9a1.367,1.367,0,1,0,0,2.734h3.9a1.367,1.367,0,0,0,0-2.734Z" transform="translate(-7.815 -139.465)" fill="#ff60a4"/>
      </g>
    </g>
    <g id="Group_67" data-name="Group 67" transform="translate(17.348 2.554)">
      <g id="Group_66" data-name="Group 66">
        <path id="Path_143" data-name="Path 143" d="M82.045,22.742,80.1,19.368a1.367,1.367,0,1,0-2.368,1.367l1.948,3.374a1.367,1.367,0,1,0,2.368-1.367Z" transform="translate(-77.545 -18.684)" fill="#ff60a4"/>
      </g>
    </g>
    <g id="Group_69" data-name="Group 69" transform="translate(10.369 9.534)">
      <g id="Group_68" data-name="Group 68" transform="translate(0)">
        <path id="Path_144" data-name="Path 144" d="M31.921,71.866l-3.374-1.948a1.367,1.367,0,1,0-1.367,2.368l3.374,1.948a1.367,1.367,0,1,0,1.367-2.368Z" transform="translate(-26.495 -69.735)" fill="#ff60a4"/>
      </g>
    </g>
    <g id="Group_71" data-name="Group 71" transform="translate(40.021 9.534)">
      <g id="Group_70" data-name="Group 70">
        <path id="Path_145" data-name="Path 145" d="M249.308,70.416a1.367,1.367,0,0,0-1.868-.5l-3.374,1.948a1.367,1.367,0,1,0,1.367,2.368l3.374-1.948A1.367,1.367,0,0,0,249.308,70.416Z" transform="translate(-243.382 -69.732)" fill="#ff60a4"/>
      </g>
    </g>
    <g id="Group_73" data-name="Group 73" transform="translate(10.369 26.653)">
      <g id="Group_72" data-name="Group 72" transform="translate(0)">
        <path id="Path_146" data-name="Path 146" d="M32.422,195.629a1.367,1.367,0,0,0-1.867-.5l-3.375,1.948a1.367,1.367,0,1,0,1.367,2.368l3.375-1.948A1.367,1.367,0,0,0,32.422,195.629Z" transform="translate(-26.495 -194.946)" fill="#ff60a4"/>
      </g>
    </g>
    <g id="Group_75" data-name="Group 75" transform="translate(17.348 32.693)">
      <g id="Group_74" data-name="Group 74" transform="translate(0)">
        <path id="Path_147" data-name="Path 147" d="M81.263,239.31a1.368,1.368,0,0,0-1.868.5L77.728,242.7a1.367,1.367,0,1,0,2.368,1.367l1.667-2.888A1.367,1.367,0,0,0,81.263,239.31Z" transform="translate(-77.545 -239.127)" fill="#ff60a4"/>
      </g>
    </g>
    <g id="Group_77" data-name="Group 77" transform="translate(34.468 2.554)">
      <g id="Group_76" data-name="Group 76" transform="translate(0)">
        <path id="Path_148" data-name="Path 148" d="M206.762,18.867a1.367,1.367,0,0,0-1.868.5l-1.948,3.374a1.367,1.367,0,1,0,2.368,1.367l1.948-3.374A1.367,1.367,0,0,0,206.762,18.867Z" transform="translate(-202.763 -18.683)" fill="#ff60a4"/>
      </g>
    </g>
  </g>
</svg>
