<svg xmlns="http://www.w3.org/2000/svg" width="72.412" height="69.999" viewBox="0 0 72.412 69.999">
  <g id="brainstorm" transform="translate(0 -8.527)">
    <g id="Group_79" data-name="Group 79" transform="translate(49.193 51.895)">
      <g id="Group_78" data-name="Group 78">
        <path id="Path_153" data-name="Path 153" d="M364.167,329.934a8.143,8.143,0,1,0-9.454,0,11.624,11.624,0,0,0-6.883,10.6,1.263,1.263,0,1,0,2.525,0,9.084,9.084,0,0,1,18.169,0,1.263,1.263,0,1,0,2.525,0A11.626,11.626,0,0,0,364.167,329.934Zm-4.728-1.007a5.618,5.618,0,1,1,5.618-5.618A5.624,5.624,0,0,1,359.439,328.927Z" transform="translate(-347.83 -315.167)" fill="#77aaad"/>
      </g>
    </g>
    <g id="Group_81" data-name="Group 81" transform="translate(24.733 8.527)">
      <g id="Group_80" data-name="Group 80">
        <path id="Path_154" data-name="Path 154" d="M194.41,11.83a11.472,11.472,0,0,0-16.294,16.152,7.493,7.493,0,0,1,2.159,5.225v1.464a5.362,5.362,0,0,0,5.356,5.356h1.449a5.362,5.362,0,0,0,5.356-5.356V33.207a7.468,7.468,0,0,1,2.151-5.217,11.471,11.471,0,0,0-.176-16.16Zm-4.5,22.842A2.834,2.834,0,0,1,187.08,37.5h-1.449a2.834,2.834,0,0,1-2.831-2.831v-.2h7.111v.2Zm2.864-8.44a10.025,10.025,0,0,0-2.781,5.714h-2.377V24.666l3.736-3.736a1.262,1.262,0,0,0-1.785-1.785l-3.214,3.214-3.213-3.214a1.262,1.262,0,1,0-1.785,1.785l3.736,3.736v7.279h-2.377a10.064,10.064,0,0,0-2.787-5.72,8.947,8.947,0,0,1,6.3-15.172h.13a8.947,8.947,0,0,1,6.419,15.179Z" transform="translate(-174.883 -8.527)" fill="#77aaad"/>
      </g>
    </g>
    <g id="Group_83" data-name="Group 83" transform="translate(14.475 40.028)">
      <g id="Group_82" data-name="Group 82">
        <path id="Path_155" data-name="Path 155" d="M112.081,231.629a1.262,1.262,0,0,0-1.785,0l-7.575,7.575a1.262,1.262,0,1,0,1.785,1.785l7.575-7.575A1.262,1.262,0,0,0,112.081,231.629Z" transform="translate(-102.352 -231.259)" fill="#77aaad"/>
      </g>
    </g>
    <g id="Group_85" data-name="Group 85" transform="translate(47.837 40.028)">
      <g id="Group_84" data-name="Group 84">
        <path id="Path_156" data-name="Path 156" d="M347.968,239.2l-7.575-7.575a1.262,1.262,0,0,0-1.785,1.785l7.575,7.575a1.262,1.262,0,0,0,1.785-1.785Z" transform="translate(-338.238 -231.26)" fill="#77aaad"/>
      </g>
    </g>
    <g id="Group_87" data-name="Group 87" transform="translate(34.943 43.036)">
      <g id="Group_86" data-name="Group 86">
        <path id="Path_157" data-name="Path 157" d="M248.336,252.528a1.263,1.263,0,0,0-1.263,1.263v4.819a1.263,1.263,0,0,0,2.525,0v-4.819A1.263,1.263,0,0,0,248.336,252.528Z" transform="translate(-247.073 -252.528)" fill="#77aaad"/>
      </g>
    </g>
    <g id="Group_89" data-name="Group 89" transform="translate(56.659 55.944)">
      <g id="Group_88" data-name="Group 88">
        <circle id="Ellipse_28" data-name="Ellipse 28" cx="1.263" cy="1.263" r="1.263" fill="#77aaad"/>
      </g>
    </g>
    <g id="Group_91" data-name="Group 91" transform="translate(61.288 55.944)">
      <g id="Group_90" data-name="Group 90">
        <circle id="Ellipse_29" data-name="Ellipse 29" cx="1.263" cy="1.263" r="1.263" fill="#77aaad"/>
      </g>
    </g>
    <g id="Group_93" data-name="Group 93" transform="translate(24.597 51.895)">
      <g id="Group_92" data-name="Group 92">
        <path id="Path_158" data-name="Path 158" d="M190.252,329.934a8.143,8.143,0,1,0-9.454,0,11.624,11.624,0,0,0-6.883,10.6,1.263,1.263,0,1,0,2.525,0,9.084,9.084,0,0,1,18.168,0,1.263,1.263,0,1,0,2.525,0A11.627,11.627,0,0,0,190.252,329.934Zm-4.728-1.007a5.618,5.618,0,1,1,5.618-5.618A5.624,5.624,0,0,1,185.524,328.927Z" transform="translate(-173.915 -315.167)" fill="#77aaad"/>
      </g>
    </g>
    <g id="Group_95" data-name="Group 95" transform="translate(32.629 55.944)">
      <g id="Group_94" data-name="Group 94">
        <circle id="Ellipse_30" data-name="Ellipse 30" cx="1.263" cy="1.263" r="1.263" fill="#77aaad"/>
      </g>
    </g>
    <g id="Group_97" data-name="Group 97" transform="translate(37.259 55.944)">
      <g id="Group_96" data-name="Group 96">
        <circle id="Ellipse_31" data-name="Ellipse 31" cx="1.263" cy="1.263" r="1.263" fill="#77aaad"/>
      </g>
    </g>
    <g id="Group_99" data-name="Group 99" transform="translate(0 51.895)">
      <g id="Group_98" data-name="Group 98">
        <path id="Path_159" data-name="Path 159" d="M16.335,329.935a8.143,8.143,0,1,0-9.454,0A11.626,11.626,0,0,0,0,340.536a1.263,1.263,0,0,0,2.525,0,9.084,9.084,0,1,1,18.168,0,1.263,1.263,0,0,0,2.525,0A11.625,11.625,0,0,0,16.335,329.935Zm-4.726-1.008a5.618,5.618,0,1,1,5.618-5.618A5.624,5.624,0,0,1,11.609,328.927Z" transform="translate(0 -315.166)" fill="#77aaad"/>
      </g>
    </g>
    <g id="Group_101" data-name="Group 101" transform="translate(13.228 55.944)">
      <g id="Group_100" data-name="Group 100">
        <circle id="Ellipse_32" data-name="Ellipse 32" cx="1.263" cy="1.263" r="1.263" fill="#77aaad"/>
      </g>
    </g>
    <g id="Group_103" data-name="Group 103" transform="translate(8.598 55.944)">
      <g id="Group_102" data-name="Group 102">
        <circle id="Ellipse_33" data-name="Ellipse 33" cx="1.263" cy="1.263" r="1.263" fill="#77aaad"/>
      </g>
    </g>
  </g>
</svg>
